<svg xmlns="http://www.w3.org/2000/svg" viewBox="0 0 135.99 138.26"><defs><style>.cls-1{fill:#007b9b;}</style></defs><g id="Layer_2"><g id="Layer_1-2"><path d="M136 44.27C123.52 26.7 97.82 14.64 68.15 14.64S12.85 26.68.35 44.22l13.9-.17C26.06 30.23 44 21 68.46 21s42.55 9.38 54.32 23.25H136M0 0h135.82v6.42H0V0" class="cls-1"/><path d="M6 135.66a10.2 10.2 0 0 1-.15-13.54 8.77 8.77 0 0 1 6.76-2.52 18.25 18.25 0 0 1 3.1.24c.82.12 1.5.33 2.15.4.23 0 .32.15.32.3s-.07.46-.1 1.3 0 2.1-.07 2.57-.07.55-.26.55-.2-.18-.2-.52a3.63 3.63 0 0 0-.85-2.2 6 6 0 0 0-4.35-1.46 5.24 5.24 0 0 0-4 1.47c-1.56 1.6-2 3.86-2 6.17 0 5.67 3.87 8.48 6.73 8.48 1.9 0 3.06-.24 3.9-1.33a4.2 4.2 0 0 0 .74-1.58c.06-.38.1-.47.28-.47s.2.17.2.36a25.8 25.8 0 0 1-.48 3.16.8.8 0 0 1-.56.7 11.2 11.2 0 0 1-3.84.54 10 10 0 0 1-7.32-2.6zM24.73 128.93c0-4.07 2.4-9.33 8.83-9.33 5.32 0 8.63 3.45 8.63 8.9s-3.43 9.76-8.86 9.76c-6.13 0-8.6-5.12-8.6-9.33zm14.47.45c0-5.33-2.76-8.64-6.26-8.64-2.46 0-5.26 1.53-5.26 7.45 0 4.94 2.46 8.87 6.56 8.87 1.5 0 4.96-.8 4.96-7.7zM53.6 131c0 3 0 4.7.46 5.12s.9.52 2.58.52c1.13 0 2 0 2.5-.66a3.12 3.12 0 0 0 .56-1.43c0-.2.06-.36.23-.36s.17.1.17.4a20.9 20.9 0 0 1-.32 2.73c-.12.53-.23.65-1.34.65-1.54 0-2.65-.05-3.62-.08s-1.73-.07-2.6-.07c-.24 0-.7 0-1.22 0s-1 0-1.48 0c-.27 0-.42-.07-.42-.23s.08-.2.34-.2a3 3 0 0 0 .77-.1c.43-.08.54-.6.63-1.3.1-1 .1-2.88.1-5.07v-4.2c0-3.6 0-4.27 0-5s-.2-1.18-.92-1.35a3.3 3.3 0 0 0-.7-.07c-.23 0-.36 0-.36-.2s.15-.22.47-.22c1 0 2.37.07 2.94.07s2.08-.07 2.9-.07c.3 0 .46 0 .46.22s-.13.2-.4.2a6.2 6.2 0 0 0-.82.08c-.58.12-.75.53-.8 1.36s0 1.43 0 5zM70.8 131c0 3 0 4.7.46 5.12s.92.52 2.6.52c1.12 0 2 0 2.5-.66a3.36 3.36 0 0 0 .55-1.43c0-.2.07-.36.24-.36s.17.1.17.4a20.9 20.9 0 0 1-.3 2.73c-.14.53-.24.65-1.36.65-1.54.02-2.64.02-3.64-.06s-1.73-.07-2.6-.07c-.24 0-.7 0-1.22 0s-1 0-1.48 0-.43-.07-.43-.23.1-.2.34-.2a2.94 2.94 0 0 0 .78-.1c.43-.08.54-.6.62-1.3.1-1 .1-2.88.1-5.07v-4.2c0-3.6 0-4.27 0-5s-.2-1.18-.9-1.35a3.32 3.32 0 0 0-.72-.07c-.23 0-.36 0-.36-.2s.15-.23.47-.23c1 0 2.34.07 2.92.07s2.07-.07 2.9-.07c.3 0 .45 0 .45.22s-.12.2-.38.2a5.93 5.93 0 0 0-.84.08c-.58.12-.75.53-.8 1.36s0 1.43 0 5zM85.35 126.83c0-3.6 0-4.28 0-5s-.22-1.2-.92-1.36a4.7 4.7 0 0 0-.84-.07c-.24 0-.37 0-.37-.2s.15-.23.47-.23c.58 0 1.2 0 1.73 0h1.35c.68 0 4.94 0 5.34 0a7.7 7.7 0 0 0 .92-.14 1.62 1.62 0 0 1 .34-.1c.1 0 .13.1.13.22a15 15 0 0 0-.16 1.54c0 .23-.06 1.28-.1 1.57 0 .1-.07.26-.22.26s-.2-.12-.2-.34a3 3 0 0 0-.12-.86c-.15-.43-.37-.72-1.43-.86-.37-.05-2.6-.1-3-.1-.1 0-.15.08-.15.24v6c0 .17 0 .27.15.27.47 0 2.93 0 3.42 0s.82-.13 1-.37.22-.3.33-.3.15 0 .15.18-.1.54-.17 1.75c0 .48-.08 1.43-.08 1.6s0 .45-.2.45-.18-.1-.18-.22a6 6 0 0 0-.1-.86c-.1-.47-.4-.83-1.2-.92-.4 0-2.5-.08-3-.08-.1 0-.12.1-.12.24V131c0 .8 0 3 0 3.7 0 1.63.4 2 2.57 2a5 5 0 0 0 2-.3c.54-.28.8-.78 1-1.75 0-.27.07-.36.22-.36s.17.18.17.42a20.32 20.32 0 0 1-.3 2.64c-.13.62-.33.62-1.14.62-1.6 0-2.78-.05-3.7-.08s-1.58-.07-2.22-.07c-.24 0-.7 0-1.22 0s-1 0-1.47 0-.43-.07-.43-.23.08-.2.34-.2a3 3 0 0 0 .77-.1c.43-.08.53-.6.62-1.3.1-1 .1-2.88.1-5.07zM116.1 136.33c0 .64 0 .7-.27.86a11 11 0 0 1-5.15 1.06c-5.24 0-9.88-2.76-9.88-9.33a9.18 9.18 0 0 1 3.72-7.78 9.5 9.5 0 0 1 5.75-1.55 23.6 23.6 0 0 1 3.78.38 11.46 11.46 0 0 0 1.7.26c.25 0 .3.12.3.3a35.58 35.58 0 0 0-.16 3.9c0 .37-.07.5-.24.5s-.2-.13-.22-.32a3.54 3.54 0 0 0-.72-2 6.46 6.46 0 0 0-4.77-1.86 5.72 5.72 0 0 0-4.23 1.48c-1.2 1.12-2 2.9-2 5.83 0 5.1 2.93 9 7.44 9a4.2 4.2 0 0 0 1.82-.27c.32-.16.4-.47.4-.88v-2.23c0-1.2 0-2.1 0-2.82s-.2-1.2-.92-1.36a3.77 3.77 0 0 0-.83-.07c-.2 0-.32-.05-.32-.2s.16-.23.46-.23c1.1 0 2.45.07 3.1.07s1.8-.08 2.5-.08c.27 0 .42.05.42.24s-.12.2-.27.2a2.9 2.9 0 0 0-.57.06c-.58.12-.8.52-.8 1.36s0 1.66 0 2.85zM126.34 126.83c0-3.6 0-4.28 0-5s-.2-1.2-.92-1.36a4.5 4.5 0 0 0-.83-.07c-.25 0-.38 0-.38-.2s.16-.23.48-.23H127.77c.7 0 4.94 0 5.35 0a8.07 8.07 0 0 0 .92-.14 1.33 1.33 0 0 1 .34-.1c.1 0 .13.1.13.22a15 15 0 0 0-.16 1.54c0 .23-.07 1.28-.1 1.57 0 .1-.08.26-.22.26s-.2-.12-.2-.34a2.7 2.7 0 0 0-.13-.86c-.16-.43-.37-.72-1.44-.86-.36-.05-2.6-.1-3-.1-.1 0-.15.08-.15.24v6c0 .17 0 .27.16.27.47 0 2.92 0 3.42 0s.83-.13 1-.37.24-.3.35-.3.14 0 .14.18-.1.54-.17 1.75c0 .48-.08 1.43-.08 1.6s0 .45-.2.45-.2-.1-.2-.22a7.64 7.64 0 0 0-.07-.86c-.1-.47-.4-.83-1.2-.92-.4 0-2.52-.08-3-.08-.1 0-.13.1-.13.24V131c0 .8 0 3 0 3.7 0 1.63.38 2 2.56 2a5 5 0 0 0 2-.3c.56-.28.8-.78 1-1.75.05-.27.1-.36.24-.36s.17.18.17.42a20.32 20.32 0 0 1-.3 2.64c-.14.62-.33.62-1.14.62-1.6 0-2.78-.05-3.7-.08s-1.58-.07-2.22-.07c-.24 0-.7 0-1.22 0s-1 0-1.48 0c-.27 0-.42-.07-.42-.23s.08-.2.34-.2a3 3 0 0 0 .77-.1c.43-.08.53-.6.62-1.3.1-1 .1-2.88.1-5.07zM35.66 98.08c0 3 0 4.68.5 5.1s1 .53 2.87.53c1.26 0 2.2 0 2.78-.65a3 3 0 0 0 .63-1.43c0-.2.07-.35.26-.35s.18.12.18.4a18.86 18.86 0 0 1-.36 2.73c-.14.52-.26.64-1.5.64-1.7 0-3-.05-4-.07s-1.9-.07-2.88-.07h-1.36c-.54 0-1.16 0-1.64 0-.3 0-.47-.07-.47-.24s.1-.2.38-.2a3.74 3.74 0 0 0 .85-.08c.48-.1.6-.62.7-1.3.1-1 .1-2.88.1-5.07v-4.1c0-3.6 0-4.27 0-5s-.23-1.2-1-1.35a3.28 3.28 0 0 0-.77-.08c-.26 0-.4 0-.4-.2S30.6 87 31 87c1.1 0 2.6.07 3.25.07s2.3-.07 3.23-.07c.33 0 .5 0 .5.2s-.14.22-.43.22a5.92 5.92 0 0 0-.92.08c-.65.1-.84.52-.88 1.35s-.05 1.42-.05 5zM53.23 98.77c-.1 0-.16 0-.2.2l-1.3 3.4a4.52 4.52 0 0 0-.35 1.44c0 .43.22.74.95.74h.36c.27 0 .34 0 .34.2s-.14.23-.4.23c-.76 0-1.78-.07-2.52-.07-.26 0-1.57.07-2.8.07-.3 0-.45 0-.45-.24s.1-.2.28-.2.55 0 .74 0c1.08-.14 1.53-1 2-2.13l6-14.92c.27-.7.42-1 .65-1s.36.22.6.76c.57 1.3 4.37 11 5.9 14.6.9 2.15 1.58 2.48 2.08 2.6a5.3 5.3 0 0 0 1 .1c.2 0 .3 0 .3.18s-.2.24-1.1.24-2.58 0-4.48 0c-.42 0-.7 0-.7-.2s.1-.18.32-.2a.4.4 0 0 0 .22-.55l-1.9-5a.23.23 0 0 0-.25-.16zm4.85-1.2c.12 0 .14-.06.12-.13l-2.14-5.87c0-.1-.05-.2-.12-.2s-.12.1-.14.2l-2.2 5.85c0 .1 0 .16.1.16zM76.56 95h.12c.8-.88 4.27-4.42 5-5.23s1.2-1.37 1.2-1.78a.4.4 0 0 0-.35-.48c-.2 0-.3-.1-.3-.24s.1-.2.37-.2c.5 0 1.8.06 2.45.06s2-.07 2.78-.07c.24 0 .4 0 .4.2s-.1.22-.35.22a4.86 4.86 0 0 0-1.38.25 7.74 7.74 0 0 0-2.57 1.8c-.73.7-4.32 4.26-5.12 5.12.86 1.1 5.52 6.12 6.44 7a11.24 11.24 0 0 0 3.4 2.57 4.14 4.14 0 0 0 1.47.35c.18 0 .32 0 .32.18s-.12.24-.57.24h-2.1a15.78 15.78 0 0 1-1.65 0 4.67 4.67 0 0 1-2.94-1.54c-1-.93-5.73-6.4-6.23-7.1l-.25-.36h-.12v2.16c0 2.2 0 4.06.07 5.1.05.65.26 1.17.85 1.27a9.5 9.5 0 0 0 1.17.1c.2 0 .3.06.3.18s-.18.24-.45.24c-1.33 0-2.82-.07-3.42-.07s-2 .07-3 .07c-.3 0-.47-.07-.47-.24s.1-.2.4-.2a3.74 3.74 0 0 0 .84-.08c.48-.1.6-.62.7-1.3.1-1 .1-2.88.1-5.07V93.9c0-3.6 0-4.27 0-5s-.23-1.2-1-1.35a4.58 4.58 0 0 0-.92-.08c-.26 0-.4 0-.4-.2s.17-.22.52-.22c1.26 0 2.76.07 3.33.07s2-.12 2.83-.12c.33 0 .5 0 .5.2s-.14.22-.33.22a3.47 3.47 0 0 0-.67.08c-.64.1-.83.52-.88 1.35s0 1.42 0 5zM96.65 93.9c0-3.6 0-4.27-.05-5s-.24-1.2-1-1.35a4.65 4.65 0 0 0-.93-.08c-.26 0-.4 0-.4-.2s.17-.22.52-.22h1.92c.6 0 1.16 0 1.5 0 .75 0 5.48 0 5.93 0a7.54 7.54 0 0 0 1-.14 2.66 2.66 0 0 1 .38-.1c.12 0 .14.1.14.23a14.9 14.9 0 0 0-.2 1.54c0 .24-.06 1.3-.1 1.57 0 .12-.08.26-.24.26s-.22-.12-.22-.33a2.54 2.54 0 0 0-.13-.86c-.17-.4-.4-.7-1.6-.84-.4-.05-2.9-.1-3.36-.1-.1 0-.16.08-.16.24v6c0 .17 0 .26.17.26.53 0 3.26 0 3.8 0a1.62 1.62 0 0 0 1.15-.35c.16-.18.26-.3.38-.3s.16.05.16.2-.12.5-.2 1.72c0 .48-.1 1.43-.1 1.6s0 .45-.2.45a.2.2 0 0 1-.22-.22 4.64 4.64 0 0 0-.1-.85c-.1-.48-.45-.83-1.32-.93-.46-.05-2.8-.07-3.38-.07-.12 0-.14.1-.14.24v1.87c0 .82 0 3 0 3.7 0 1.63.43 2 2.85 2a5.9 5.9 0 0 0 2.22-.3c.62-.27.9-.77 1.07-1.74 0-.26.1-.36.25-.36s.2.2.2.43a18.37 18.37 0 0 1-.32 2.63c-.16.62-.38.62-1.28.62-1.78 0-3.1-.05-4.1-.07s-1.76-.06-2.48-.06h-1.35c-.55 0-1.16 0-1.64 0-.3 0-.47-.07-.47-.24s.1-.2.38-.2a3.77 3.77 0 0 0 .86-.08c.48-.1.6-.62.7-1.3.1-1 .1-2.88.1-5.07zM7 66.42c0 2.28 0 4.06.12 5.06.07.7.22 1.2.93 1.3a11.7 11.7 0 0 0 1.18.1c.3 0 .4.07.4.2s-.16.23-.5.23c-1.5 0-3-.06-3.62-.06s-2.1.07-3 .07c-.32 0-.5 0-.5-.23s.1-.2.37-.2a4.4 4.4 0 0 0 .85-.08c.48-.1.6-.63.7-1.32.08-1 .08-2.78.08-5.06v-4.18c0-3.6 0-4.27 0-5s-.24-1.2-1-1.36a5.6 5.6 0 0 0-1-.1c-.23 0-.4 0-.4-.2s.2-.23.55-.23h1.92c.62 0 1.16 0 1.5 0 .9 0 5.72 0 6.27 0a4.47 4.47 0 0 0 1-.1c.14-.04.26-.14.38-.14s.17.1.17.23-.13.45-.2 1.07c0 .23-.07 1.64-.12 1.92s-.07.33-.24.33-.2-.1-.24-.38a2.35 2.35 0 0 0-.14-.9 1.7 1.7 0 0 0-1.57-.7l-3.66-.08c-.24.04-.24.1-.24.4v5.94c0 .14 0 .2.17.2h3c.4 0 .73 0 1.07 0a1.23 1.23 0 0 0 1-.4c.12-.16.16-.25.3-.25s.15.06.15.2-.13.74-.2 1.48c0 .47-.1 1.56-.1 1.73s0 .46-.23.46S12 66.1 12 66a2.53 2.53 0 0 0-.15-.74 1.37 1.37 0 0 0-1.2-.85c-.6-.06-3.12-.06-3.52-.06-.12 0-.17 0-.17.2zM20.9 64.33c0-4.06 2.68-9.3 9.8-9.3 5.92 0 9.6 3.44 9.6 8.87a9.4 9.4 0 0 1-9.84 9.74c-6.8 0-9.57-5.1-9.57-9.3zm16.1.45c0-5.32-3.06-8.62-7-8.62-2.73 0-5.84 1.52-5.84 7.44 0 4.94 2.73 8.85 7.3 8.85 1.66 0 5.54-.8 5.54-7.67zM53 66.42c0 3 0 4.68.5 5.1s1 .53 2.87.53c1.26 0 2.2 0 2.78-.66a3 3 0 0 0 .6-1.4c0-.2.07-.36.26-.36s.2.12.2.4a18.86 18.86 0 0 1-.36 2.74c-.14.52-.26.64-1.5.64-1.7 0-3 0-4-.07s-1.9-.07-2.88-.07H50.1c-.54 0-1.16 0-1.64 0-.3 0-.47-.07-.47-.24s.08-.2.37-.2a4.4 4.4 0 0 0 .85-.08c.48-.1.6-.62.7-1.3.1-1 .1-2.88.1-5.07v-4.16c0-3.6 0-4.27 0-5s-.22-1.2-1-1.36a4 4 0 0 0-.77-.07c-.26 0-.4 0-.4-.2s.16-.22.52-.22c1.1 0 2.6.08 3.25.08s2.3-.08 3.23-.08c.33 0 .5 0 .5.22s-.14.2-.43.2a7.4 7.4 0 0 0-.92.08c-.65.12-.84.53-.88 1.36s-.05 1.42-.05 5zM67.82 73c-.38-.17-.45-.3-.45-.8 0-1.32.1-2.74.12-3.12s.1-.62.28-.62.23.2.23.4a4.94 4.94 0 0 0 .23 1.2 3.26 3.26 0 0 0 3.4 2.4 2.9 2.9 0 0 0 3.18-2.7c0-1.16-.35-2.28-2.32-3.8l-1.1-.85c-2.6-2-3.5-3.7-3.5-5.62 0-2.6 2.18-4.5 5.48-4.5a11.34 11.34 0 0 1 3.16.42c.2 0 .33.1.33.28s-.1 1-.1 2.85c0 .52-.07.7-.26.7s-.25-.13-.25-.4a2.83 2.83 0 0 0-.6-1.58 3 3 0 0 0-2.6-1.17c-1.76 0-2.83 1-2.83 2.45 0 1.1.55 1.93 2.52 3.42l.66.5c2.85 2.2 3.9 3.8 3.9 6.06a4.8 4.8 0 0 1-2.23 4.14 6.87 6.87 0 0 1-3.78 1A8.25 8.25 0 0 1 67.8 73zM85.1 64.33c0-4.06 2.7-9.3 9.82-9.3 5.92 0 9.6 3.44 9.6 8.87a9.4 9.4 0 0 1-9.84 9.74c-6.8 0-9.57-5.1-9.57-9.3zm16.1.45c0-5.32-3.07-8.62-7-8.62-2.74 0-5.85 1.52-5.85 7.44 0 4.94 2.73 8.85 7.3 8.85 1.7 0 5.54-.8 5.54-7.67zM115.23 55.45c.07-.4.2-.62.4-.62s.33.12.64.74l6.5 13.43 6.45-13.56c.16-.38.3-.57.52-.57s.35.24.43.74l2.16 14.7c.2 1.48.45 2.17 1.16 2.38a4.57 4.57 0 0 0 1.46.24c.22 0 .38 0 .38.17s-.28.25-.6.25c-.6 0-3.9-.07-4.84-.14-.54 0-.68-.1-.68-.25s.1-.2.26-.27.2-.35.12-1l-1.43-10.45h-.1L122.9 72c-.55 1.1-.67 1.33-.88 1.33s-.45-.48-.83-1.2c-.58-1.08-2.46-4.72-2.74-5.38-.22-.5-1.64-3.5-2.47-5.28h-.1l-1.24 9.46a8.7 8.7 0 0 0-.07 1.1c0 .46.3.68.7.77a4.33 4.33 0 0 0 1 .12c.2 0 .35.05.35.17s-.2.25-.57.25c-1 0-2.06-.07-2.5-.07s-1.58.07-2.34.07c-.24 0-.43 0-.43-.26s.15-.18.4-.18a3.06 3.06 0 0 0 .7-.07c.67-.14.86-1.07 1-1.88z" class="cls-1"/></g></g></svg>